<?xml version="1.0" standalone="no"?>
<!DOCTYPE svg PUBLIC "-//W3C//DTD SVG 20010904//EN"
 "http://www.w3.org/TR/2001/REC-SVG-20010904/DTD/svg10.dtd">
<svg version="1.0" xmlns="http://www.w3.org/2000/svg"
 width="494.000000pt" height="494.000000pt" viewBox="0 0 494.000000 494.000000"
 preserveAspectRatio="xMidYMid meet">
<metadata>
Created by potrace 1.14, written by Peter Selinger 2001-2017
</metadata>
<g transform="translate(0.000000,494.000000) scale(0.100000,-0.100000)"
fill="#000000" stroke="none">
<path d="M2268 4935 c-1 -1 -32 -5 -68 -9 -172 -16 -396 -69 -580 -138 -708
-264 -1258 -847 -1490 -1578 -30 -96 -74 -289 -85 -371 -3 -24 -10 -73 -15
-109 -9 -67 -6 -518 3 -557 3 -11 9 -43 12 -70 82 -577 397 -1146 841 -1519
33 -27 61 -52 64 -55 16 -18 209 -150 288 -196 291 -171 641 -287 972 -321
137 -14 510 -7 619 12 138 24 122 20 259 55 161 40 288 88 461 174 613 302
1081 858 1271 1511 72 247 94 404 94 676 1 321 -17 469 -90 723 -88 305 -261
633 -465 883 -186 228 -461 456 -721 598 -242 131 -573 242 -813 272 -27 3
-77 9 -110 14 -56 7 -439 12 -447 5z"/>
</g>
</svg>
